<svg width="16" height="16" viewBox="0 0 16 16" fill="none" xmlns="http://www.w3.org/2000/svg">
<path d="M9.98781 0.645447C10.3986 1.68026 10.3986 1.68029 9.81719 2.62982C10.852 2.21904 10.8521 2.21901 11.8016 2.80035C11.3908 1.76554 11.3907 1.76557 11.9721 0.816041C10.9373 1.22685 10.9373 1.22682 9.98781 0.645447ZM3.532 1.18817C3.163 1.84567 3.163 1.84567 2.41563 1.94495C3.07313 2.31398 3.07312 2.31395 3.17241 3.06135C3.54141 2.40385 3.54141 2.40385 4.28878 2.30457C3.63128 1.93557 3.63128 1.93557 3.532 1.18817ZM5.92419 2.94392C5.89444 4.52479 5.8945 4.52479 4.61197 5.44954C6.19281 5.47923 6.19284 5.47923 7.11759 6.76173C7.14728 5.18085 7.14728 5.18085 8.42978 4.2561C6.84891 4.22642 6.84891 4.22642 5.92416 2.94392H5.92419ZM11.8985 4.69032C11.897 5.44429 11.897 5.44423 11.2929 5.89545C12.0469 5.89692 12.0469 5.89688 12.4981 6.50092C12.4996 5.74698 12.4996 5.74701 13.1036 5.29579C12.3497 5.29432 12.3497 5.29435 11.8985 4.69032ZM6.14578 7.31157C6.10938 7.31231 6.073 7.3137 6.03666 7.31576C5.45569 7.34901 4.72828 7.57876 3.6165 8.02063L2.37538 13.5494C4.82809 12.9015 6.53069 12.8648 7.71881 13.4052V7.74095C7.15394 7.46554 6.72537 7.32223 6.25922 7.31167C6.22142 7.31089 6.18361 7.31087 6.14581 7.3116L6.14578 7.31157ZM9.97972 7.66845C9.89102 7.66766 9.80231 7.66868 9.71366 7.67151C9.31334 7.68454 8.84997 7.74073 8.28116 7.81282V13.3483C9.64256 13.1038 11.6202 13.217 13.6325 13.5847L12.3894 8.04732C11.2674 7.78576 10.621 7.67513 9.97972 7.66848V7.66845ZM10.0513 8.19813C10.6415 8.20451 11.2029 8.28463 11.7296 8.35501L11.8682 8.87135C11.1251 8.75417 9.80681 8.71804 8.97866 8.84073L8.95878 8.28432C9.3325 8.21701 9.69706 8.19432 10.0513 8.19813ZM2.22366 8.3437L1.89188 9.78132H2.64481L2.9675 8.3437H2.22366ZM13.0324 8.3437L14.2744 13.8759L14.3443 14.1876L15.0503 14.1828L13.7736 8.3437H13.0324ZM10.5682 10.1506C11.0992 10.1514 11.6203 10.1753 12.104 10.22L12.2141 10.7567C11.1939 10.6605 9.94597 10.6664 8.9955 10.7567L8.97334 10.22C9.49625 10.1721 10.0371 10.1498 10.5682 10.1506ZM1.76213 10.3437L1.54575 11.2813H2.30806L2.51853 10.3437H1.76213ZM10.3377 11.1951C10.4832 11.1957 10.6342 11.1977 10.7976 11.2014L10.8774 11.7482C10.2533 11.7335 9.40506 11.7657 9.01091 11.781L8.98903 11.219C9.51412 11.2036 9.90119 11.1931 10.3377 11.1951ZM11.6338 11.209C11.8922 11.2104 12.1556 11.2195 12.3876 11.2112L12.4682 11.7656C12.1978 11.7558 11.691 11.7396 11.4662 11.7499L11.3785 11.2113C11.4636 11.2092 11.5487 11.2084 11.6338 11.209ZM1.416 11.8437L0.853969 14.2789L1.63631 14.2736L2.18178 11.8437H1.416ZM10.8899 12.2139C11.5026 12.2136 12.098 12.2381 12.6539 12.2943L12.7475 12.9439C11.6755 12.8113 10.0677 12.7034 9.02566 12.8425L9.02128 12.2825C9.64691 12.2394 10.2771 12.2143 10.8899 12.2139ZM5.68344 13.5905C4.74244 13.5933 3.56106 13.7858 2.07694 14.208L1.85131 14.2722L7.71878 14.2325V14.0341C7.21141 13.7464 6.54941 13.5879 5.68347 13.5905H5.68344ZM9.88375 13.7834C9.27031 13.7855 8.724 13.8284 8.28116 13.9141V14.2286L13.831 14.191C12.4459 13.9212 11.0454 13.7795 9.88378 13.7834H9.88375ZM0.8125 14.8438V15.4063H15.1875V14.8438H0.8125Z" fill="white"/>
</svg>
