<svg width="32" height="29" viewBox="0 0 32 29" fill="none" xmlns="http://www.w3.org/2000/svg">
<path d="M5.33329 21.75H7.99996V26.6812L14.8013 21.75H21.3333C22.804 21.75 24 20.6661 24 19.3333V9.66667C24 8.33387 22.804 7.25 21.3333 7.25H5.33329C3.86263 7.25 2.66663 8.33387 2.66663 9.66667V19.3333C2.66663 20.6661 3.86263 21.75 5.33329 21.75Z" fill="black"/>
<path d="M26.6667 2.41663H10.6667C9.196 2.41663 8 3.5005 8 4.83329H24C25.4707 4.83329 26.6667 5.91717 26.6667 7.24996V16.9166C28.1373 16.9166 29.3333 15.8328 29.3333 14.5V4.83329C29.3333 3.5005 28.1373 2.41663 26.6667 2.41663Z" fill="black"/>
</svg>
