<svg width="40" height="41" viewBox="0 0 40 41" fill="none" xmlns="http://www.w3.org/2000/svg">
<g filter="url(#filter0_d_80_35)">
<circle cx="20" cy="16" r="16" fill="#070B54"/>
</g>
<path d="M20.38 6C19.6431 6.68662 19.0521 7.51462 18.6422 8.43462C18.2323 9.35461 18.0119 10.3477 17.9941 11.3548C17.9763 12.3618 18.1616 13.3621 18.5388 14.296C18.916 15.2299 19.4774 16.0782 20.1896 16.7904C20.9018 17.5026 21.7501 18.064 22.684 18.4412C23.6179 18.8184 24.6182 19.0037 25.6252 18.9859C26.6323 18.9681 27.6254 18.7477 28.5454 18.3378C29.4654 17.9279 30.2934 17.3369 30.98 16.6C30.662 21.835 26.316 25.981 21.001 25.981C15.477 25.981 11 21.504 11 15.981C11 10.666 15.146 6.32 20.38 6Z" fill="#E9EAEB"/>
<defs>
<filter id="filter0_d_80_35" x="0" y="0" width="40" height="41" filterUnits="userSpaceOnUse" color-interpolation-filters="sRGB">
<feFlood flood-opacity="0" result="BackgroundImageFix"/>
<feColorMatrix in="SourceAlpha" type="matrix" values="0 0 0 0 0 0 0 0 0 0 0 0 0 0 0 0 0 0 127 0" result="hardAlpha"/>
<feOffset dy="5"/>
<feGaussianBlur stdDeviation="2"/>
<feComposite in2="hardAlpha" operator="out"/>
<feColorMatrix type="matrix" values="0 0 0 0 0 0 0 0 0 0 0 0 0 0 0 0 0 0 0.45 0"/>
<feBlend mode="normal" in2="BackgroundImageFix" result="effect1_dropShadow_80_35"/>
<feBlend mode="normal" in="SourceGraphic" in2="effect1_dropShadow_80_35" result="shape"/>
</filter>
</defs>
</svg>
