<svg width="44" height="44" viewBox="0 0 44 44" fill="none" xmlns="http://www.w3.org/2000/svg">
<path d="M6.46732 39.2299L3.01126 0.464844H40.9888L37.5293 39.224L21.977 43.5357L6.46732 39.2299Z" fill="#1572B6"/>
<path d="M22.0003 40.24L34.5675 36.7557L37.5241 3.63403H22.0003V40.24Z" fill="#33A9DC"/>
<path d="M22.0003 17.6786H28.2916L28.7261 12.8101H22.0003V8.05566H33.9223L33.8081 9.33132L32.6394 22.433H22.0003V17.6786Z" fill="white"/>
<path d="M22.0285 30.0262L22.0075 30.0324L16.7128 28.6027L16.3742 24.8108H11.6022L12.2681 32.276L22.0069 34.9789L22.0285 34.9727V30.0262Z" fill="#EBEBEB"/>
<path d="M27.8874 22.2319L27.3147 28.5989L22.012 30.0302V34.9768L31.7587 32.2756L31.8302 31.4723L32.6573 22.2319H27.8874Z" fill="white"/>
<path d="M22.0165 8.05566V12.8101H10.5325L10.4373 11.7417L10.2207 9.33132L10.1069 8.05566H22.0165ZM22.0003 17.6793V22.4337H16.7722L16.677 21.3653L16.4601 18.9549L16.3467 17.6793H22.0003Z" fill="#EBEBEB"/>
</svg>
