<svg width="24" height="20" viewBox="0 0 24 20" fill="none" xmlns="http://www.w3.org/2000/svg">
<path d="M2.15467 19.3333C1.54044 19.3333 1.028 19.128 0.617333 18.7173C0.206667 18.3066 0.000888889 17.7937 0 17.1786V2.82129C0 2.20707 0.205778 1.69463 0.617333 1.28396C1.02889 0.873292 1.54089 0.667515 2.15333 0.666626H21.8467C22.46 0.666626 22.972 0.872404 23.3827 1.28396C23.7933 1.69551 23.9991 2.20796 24 2.82129V17.18C24 17.7933 23.7942 18.3057 23.3827 18.7173C22.9711 19.1288 22.4591 19.3342 21.8467 19.3333H2.15467ZM12 10.1546L22.6667 3.17996L22.256 1.99996L12 8.66663L1.744 1.99996L1.33333 3.17996L12 10.1546Z" fill="black"/>
</svg>
