<svg width="136" height="39" viewBox="0 0 136 39" fill="none" xmlns="http://www.w3.org/2000/svg">
<g clip-path="url(#clip0_0_1)">
<path d="M52.5883 12.7492C50.6643 12.7492 49.2315 13.6906 49.2315 15.9565C49.2315 17.6637 50.1758 18.8491 52.4844 18.8491C54.4414 18.8491 55.7707 17.6997 55.7707 15.8856C55.7707 13.8301 54.5813 12.7492 52.5883 12.7492ZM48.7417 28.7486C48.2862 29.3053 47.8325 29.8973 47.8325 30.5952C47.8325 31.9885 49.6152 32.4078 52.064 32.4078C54.0922 32.4078 56.8552 32.266 56.8552 30.3865C56.8552 29.2693 55.5259 29.2005 53.8464 29.0957L48.7417 28.7486ZM59.093 12.8544C59.7214 13.656 60.3869 14.7719 60.3869 16.3748C60.3869 20.2434 57.3444 22.5086 52.9389 22.5086C51.8186 22.5086 50.8045 22.3695 50.1758 22.1955L49.0212 24.0421L52.448 24.2511C58.4987 24.6354 62.0644 24.8102 62.0644 29.4437C62.0644 33.4527 58.5334 35.7169 52.448 35.7169C46.1185 35.7169 43.7054 34.1136 43.7054 31.3605C43.7054 29.7921 44.4049 28.9572 45.629 27.8051C44.4747 27.319 44.0904 26.4481 44.0904 25.5063C44.0904 24.7389 44.4747 24.0424 45.1052 23.3795C45.7342 22.7183 46.4334 22.0554 47.2729 21.2887C45.5596 20.452 44.265 18.6397 44.265 16.06C44.265 12.0527 46.9233 9.30031 52.2727 9.30031C53.7769 9.30031 54.6865 9.43803 55.4909 9.64873H62.3109V12.6101L59.093 12.8544ZM68.4633 6.52086C66.4696 6.52086 65.3156 5.36975 65.3156 3.38237C65.3156 1.39773 66.4692 0.316162 68.4633 0.316162C70.4914 0.316162 71.6458 1.39773 71.6458 3.38237C71.6458 5.36975 70.4918 6.52086 68.4633 6.52086ZM63.9513 27.4659V24.7139L65.7353 24.4707C66.2252 24.4004 66.2946 24.2963 66.2946 23.7724V13.5255C66.2946 13.1432 66.1901 12.8979 65.8391 12.7944L63.9513 12.1315L64.3356 9.30922H71.5753V23.7724C71.5753 24.3309 71.609 24.4004 72.1353 24.471L73.9186 24.7142V27.4659H63.9513ZM87.748 26.1148C86.2438 26.8462 84.0407 27.5084 82.0466 27.5084C77.8852 27.5084 76.3122 25.8373 76.3122 21.8968V12.7663C76.3122 12.5573 76.3122 12.4179 76.0313 12.4179H73.5838V9.31504C76.6621 8.9656 77.8852 7.43215 78.2698 3.63314H81.5925V8.58361C81.5925 8.82685 81.5925 8.93202 81.8727 8.93202H86.8031V12.4172H81.5925V20.7467C81.5925 22.8029 82.0827 23.6039 83.9702 23.6039C84.9506 23.6039 85.9636 23.3607 86.8027 23.0468L87.748 26.1148Z" fill="#2F2707"/>
<path d="M35.9318 16.9686L19.942 1.03358C19.723 0.815269 19.463 0.64209 19.1768 0.523937C18.8907 0.405784 18.584 0.344971 18.2743 0.344971C17.9645 0.344971 17.6578 0.405784 17.3717 0.523937C17.0855 0.64209 16.8255 0.815269 16.6066 1.03358L13.2863 4.34302L17.4982 8.54047C17.9934 8.37286 18.5257 8.3467 19.0349 8.46495C19.5442 8.58319 20.0101 8.84112 20.3799 9.20955C20.7515 9.58055 21.0109 10.0482 21.1286 10.5591C21.2463 11.07 21.2174 11.6036 21.0454 12.099L25.104 16.1447C26.0861 15.8075 27.2195 16.0258 28.0036 16.8086C28.2643 17.0682 28.4711 17.3765 28.6123 17.7158C28.7534 18.0552 28.826 18.4189 28.826 18.7862C28.826 19.1535 28.7534 19.5173 28.6123 19.8566C28.4711 20.1959 28.2643 20.5042 28.0036 20.7638C27.5449 21.2214 26.9414 21.5063 26.2956 21.5703C25.6499 21.6342 25.0019 21.4731 24.4619 21.1144C23.9219 20.7558 23.5233 20.2217 23.334 19.6031C23.1446 18.9845 23.1763 18.3196 23.4235 17.7216L19.6381 13.949L19.6377 23.8773C19.912 24.0128 20.1626 24.1914 20.3799 24.4063C20.6406 24.666 20.8473 24.9744 20.9884 25.3137C21.1295 25.6531 21.2021 26.0169 21.2021 26.3842C21.2021 26.7516 21.1295 27.1153 20.9884 27.4547C20.8473 27.7941 20.6406 28.1025 20.3799 28.3622C19.2833 29.4551 17.5061 29.4551 16.4113 28.3622C16.0842 28.0364 15.843 27.6352 15.709 27.1941C15.575 26.753 15.5525 26.2858 15.6434 25.834C15.7343 25.3821 15.9358 24.9596 16.23 24.6041C16.5242 24.2486 16.902 23.971 17.3298 23.7961V13.7753C16.9858 13.6349 16.6735 13.4273 16.4113 13.1648C15.5808 12.3381 15.3811 11.1236 15.8066 10.1071L11.6548 5.96863L0.691268 16.8946C0.472187 17.1129 0.298402 17.3721 0.179836 17.6574C0.0612696 17.9427 0.000244141 18.2484 0.000244141 18.5572C0.000244141 18.866 0.0612696 19.1717 0.179836 19.457C0.298402 19.7423 0.472187 20.0015 0.691268 20.2198L16.6811 36.1551C16.9001 36.3735 17.1601 36.5466 17.4463 36.6648C17.7324 36.7829 18.0391 36.8438 18.3488 36.8438C18.6586 36.8438 18.9653 36.7829 19.2514 36.6648C19.5376 36.5466 19.7976 36.3735 20.0166 36.1551L35.9318 20.2941C36.3741 19.853 36.6226 19.255 36.6226 18.6314C36.6226 18.0078 36.3741 17.4097 35.9318 16.9686Z" fill="#DE4C36"/>
</g>
<g clip-path="url(#clip1_0_1)">
<mask id="mask0_0_1" style="mask-type:luminance" maskUnits="userSpaceOnUse" x="98" y="1" width="38" height="38">
<path d="M98 1H136V39H98V1Z" fill="white"/>
</mask>
<g mask="url(#mask0_0_1)">
<path fill-rule="evenodd" clip-rule="evenodd" d="M117 1C106.502 1 98 9.5025 98 20C98 28.4075 103.439 35.5087 110.991 38.0262C111.941 38.1925 112.297 37.6225 112.297 37.1237C112.297 36.6725 112.274 35.1762 112.274 33.585C107.5 34.4637 106.265 32.4212 105.885 31.3525C105.671 30.8062 104.745 29.12 103.938 28.6687C103.273 28.3125 102.322 27.4337 103.914 27.41C105.41 27.3862 106.479 28.7875 106.835 29.3575C108.545 32.2312 111.276 31.4237 112.369 30.925C112.535 29.69 113.034 28.8587 113.58 28.3837C109.352 27.9087 104.935 26.27 104.935 19.0025C104.935 16.9362 105.671 15.2262 106.883 13.8962C106.693 13.4213 106.028 11.4738 107.073 8.86125C107.073 8.86125 108.664 8.3625 112.297 10.8088C113.818 10.3812 115.433 10.1675 117.048 10.1675C118.663 10.1675 120.278 10.3812 121.798 10.8088C125.431 8.33875 127.023 8.86125 127.023 8.86125C128.068 11.4738 127.403 13.4213 127.213 13.8962C128.424 15.2262 129.16 16.9125 129.16 19.0025C129.16 26.2937 124.719 27.9087 120.491 28.3837C121.18 28.9775 121.774 30.1175 121.774 31.8987C121.774 34.44 121.75 36.4825 121.75 37.1237C121.75 37.6225 122.106 38.2162 123.056 38.0262C126.828 36.7528 130.106 34.3287 132.427 31.095C134.749 27.8613 135.999 23.981 136 20C136 9.5025 127.498 1 117 1Z" fill="black"/>
</g>
</g>
<defs>
<clipPath id="clip0_0_1">
<rect width="88" height="37" fill="white"/>
</clipPath>
<clipPath id="clip1_0_1">
<rect width="38" height="38" fill="white" transform="translate(98 1)"/>
</clipPath>
</defs>
</svg>
