<svg width="21" height="21" viewBox="0 0 21 21" fill="none" xmlns="http://www.w3.org/2000/svg">
<path d="M11.1532 0C12.2909 0.00303389 12.8683 0.00910168 13.3669 0.0232598L13.5631 0.0303389C13.7896 0.0384293 14.0131 0.0485422 14.2831 0.0606778C15.3591 0.111243 16.0933 0.281141 16.7375 0.530931C17.405 0.787801 17.9673 1.13569 18.5296 1.69696C19.044 2.20233 19.4419 2.81391 19.6956 3.48897C19.9454 4.13317 20.1153 4.86737 20.1658 5.9444C20.178 6.21341 20.1881 6.43691 20.1962 6.66445L20.2022 6.86064C20.2174 7.3582 20.2235 7.93565 20.2255 9.07336L20.2265 9.82779V11.1526C20.229 11.8902 20.2212 12.6279 20.2033 13.3653L20.1972 13.5615C20.1891 13.789 20.179 14.0125 20.1668 14.2815C20.1163 15.3586 19.9444 16.0918 19.6956 16.737C19.4419 17.412 19.044 18.0236 18.5296 18.529C18.0242 19.0434 17.4126 19.4414 16.7375 19.695C16.0933 19.9448 15.3591 20.1147 14.2831 20.1653L13.5631 20.1956L13.3669 20.2017C12.8683 20.2158 12.2909 20.2229 11.1532 20.2249L10.3987 20.2259H9.07494C8.33696 20.2285 7.59898 20.2208 6.86121 20.2027L6.66502 20.1966C6.42495 20.1875 6.18493 20.1771 5.94498 20.1653C4.86896 20.1147 4.13476 19.9448 3.48955 19.695C2.81484 19.4412 2.20363 19.0433 1.69854 18.529C1.18374 18.0237 0.785452 17.4121 0.531506 16.737C0.281716 16.0928 0.111818 15.3586 0.061253 14.2815L0.0309141 13.5615L0.0258577 13.3653C0.00721554 12.6279 -0.00121284 11.8902 0.000575223 11.1526V9.07336C-0.00222394 8.33572 0.00519302 7.59807 0.0228238 6.86064L0.0299029 6.66445C0.0379933 6.43691 0.0481062 6.21341 0.0602418 5.9444C0.110807 4.86737 0.280704 4.13418 0.530495 3.48897C0.785033 2.81363 1.18402 2.20203 1.69955 1.69696C2.20435 1.18276 2.8152 0.784841 3.48955 0.530931C4.13476 0.281141 4.86795 0.111243 5.94498 0.0606778C6.21398 0.0485422 6.43849 0.0384293 6.66502 0.0303389L6.86121 0.0242711C7.59864 0.00630312 8.33629 -0.00145091 9.07393 0.00101122L11.1532 0ZM10.1135 5.05649C8.77248 5.05649 7.48635 5.58922 6.53807 6.5375C5.5898 7.48577 5.05706 8.77191 5.05706 10.113C5.05706 11.454 5.5898 12.7402 6.53807 13.6884C7.48635 14.6367 8.77248 15.1695 10.1135 15.1695C11.4546 15.1695 12.7407 14.6367 13.689 13.6884C14.6373 12.7402 15.17 11.454 15.17 10.113C15.17 8.77191 14.6373 7.48577 13.689 6.5375C12.7407 5.58922 11.4546 5.05649 10.1135 5.05649ZM10.1135 7.07908C10.512 7.07901 10.9065 7.15742 11.2746 7.30983C11.6427 7.46223 11.9772 7.68565 12.259 7.96733C12.5407 8.249 12.7643 8.58342 12.9168 8.95148C13.0693 9.31955 13.1479 9.71405 13.1479 10.1125C13.148 10.5109 13.0696 10.9054 12.9172 11.2735C12.7648 11.6416 12.5414 11.9761 12.2597 12.2579C11.978 12.5397 11.6436 12.7632 11.2755 12.9157C10.9075 13.0683 10.513 13.1468 10.1146 13.1469C9.30992 13.1469 8.53824 12.8272 7.96927 12.2583C7.40031 11.6893 7.08067 10.9176 7.08067 10.113C7.08067 9.30833 7.40031 8.53665 7.96927 7.96769C8.53824 7.39872 9.30992 7.07908 10.1146 7.07908M15.4239 3.53954C15.0886 3.53954 14.7671 3.67272 14.53 3.90979C14.2929 4.14686 14.1597 4.4684 14.1597 4.80366C14.1597 5.13893 14.2929 5.46046 14.53 5.69753C14.7671 5.9346 15.0886 6.06778 15.4239 6.06778C15.7591 6.06778 16.0807 5.9346 16.3177 5.69753C16.5548 5.46046 16.688 5.13893 16.688 4.80366C16.688 4.4684 16.5548 4.14686 16.3177 3.90979C16.0807 3.67272 15.7591 3.53954 15.4239 3.53954Z" fill="#B6BFBE"/>
</svg>
