<svg width="20" height="20" viewBox="0 0 20 20" fill="none" xmlns="http://www.w3.org/2000/svg">
<path d="M17.2222 17.59H17.59V17.2222V11.3333C17.59 10.2751 17.1696 9.26027 16.4213 8.512C15.6731 7.76374 14.6582 7.34337 13.6 7.34337C12.8494 7.34337 12.0236 7.65974 11.39 8.18741V7.92222V7.55448H11.0222H7.92222H7.55448V7.92222V17.2222V17.59H7.92222H11.0222H11.39V17.2222V11.7444C11.39 11.0885 11.9176 10.5566 12.5667 10.5566C12.8817 10.5566 13.1838 10.6818 13.4066 10.9045C13.6293 11.1273 13.7545 11.4294 13.7545 11.7444V17.2222V17.59H14.1222H17.2222ZM5.85556 17.59H6.2233V17.2222V7.92222V7.55448H5.85556H2.77778H2.41003V7.92222V17.2222V17.59H2.77778H5.85556ZM17.7778 0.367744C18.2696 0.367744 18.7413 0.563126 19.0891 0.910908C19.4369 1.25869 19.6323 1.73038 19.6323 2.22222V17.7778C19.6323 18.2696 19.4369 18.7413 19.0891 19.0891C18.7413 19.4369 18.2696 19.6323 17.7778 19.6323H2.22222C1.73038 19.6323 1.25869 19.4369 0.910908 19.0891C0.563126 18.7413 0.367744 18.2696 0.367744 17.7778V2.22222C0.367744 1.73038 0.563126 1.25869 0.910908 0.910908C1.25869 0.563126 1.73038 0.367744 2.22222 0.367744H17.7778ZM4.31111 6.54552C4.90371 6.54552 5.47205 6.31011 5.89108 5.89108C6.31011 5.47205 6.54552 4.90371 6.54552 4.31111C6.54552 3.07753 5.55038 2.06559 4.31111 2.06559C3.71556 2.06559 3.1444 2.30217 2.72329 2.72329C2.30217 3.1444 2.06559 3.71556 2.06559 4.31111C2.06559 5.55038 3.07753 6.54552 4.31111 6.54552Z" fill="#B6BFBE" stroke="#B6BFBE" stroke-width="0.735489"/>
</svg>
