<svg width="67" height="39" viewBox="0 0 67 39" fill="none" xmlns="http://www.w3.org/2000/svg">
<path d="M20.6257 36.7766H0.911992V33.9603H20.6257V36.7766ZM28.8692 10.1983C29.544 10.1983 30.1013 10.4329 30.5414 10.9023C31.0108 11.3424 31.2454 11.8997 31.2454 12.5745V27.6238C31.2454 28.2985 31.0108 28.8706 30.5414 29.3399C30.1013 29.78 29.544 30 28.8692 30H24.1168C23.4421 30 22.87 29.78 22.4007 29.3399C21.9606 28.8706 21.7406 28.2985 21.7406 27.6238V21.2872C21.7406 20.6125 21.9606 20.0551 22.4007 19.6151C22.87 19.1457 23.4421 18.911 24.1168 18.911H27.2851C27.5198 18.911 27.7105 18.8377 27.8571 18.691C28.0038 18.5443 28.0772 18.3536 28.0772 18.119V14.1586C28.0772 13.9239 28.0038 13.7332 27.8571 13.5866C27.7105 13.4399 27.5198 13.3665 27.2851 13.3665H22.5327C23.2074 13.3665 23.7648 13.6012 24.2048 14.0706C24.6742 14.5106 24.9089 15.068 24.9089 15.7427C24.9089 15.9774 24.8355 16.1681 24.6889 16.3148C24.5422 16.4615 24.3515 16.5348 24.1168 16.5348H22.5327C22.298 16.5348 22.1073 16.4615 21.9606 16.3148C21.8139 16.1681 21.7406 15.9774 21.7406 15.7427V12.5745C21.7406 11.8997 21.9606 11.3424 22.4007 10.9023C22.87 10.4329 23.4421 10.1983 24.1168 10.1983H28.8692ZM28.0772 22.8714C28.0772 22.6367 28.0038 22.446 27.8571 22.2993C27.7105 22.1526 27.5198 22.0793 27.2851 22.0793H22.5327C23.2074 22.0793 23.7648 22.314 24.2048 22.7834C24.6742 23.2234 24.9089 23.7808 24.9089 24.4555V26.0397C24.9089 26.2743 24.9822 26.465 25.1289 26.6117C25.2756 26.7584 25.4663 26.8317 25.701 26.8317H27.2851C27.5198 26.8317 27.7105 26.7584 27.8571 26.6117C28.0038 26.465 28.0772 26.2743 28.0772 26.0397V22.8714ZM35.9772 0.693426C36.2119 0.693426 36.4026 0.766766 36.5493 0.913445C36.696 1.06012 36.7693 1.25081 36.7693 1.4855V29.2079C36.7693 29.4426 36.696 29.6333 36.5493 29.78C36.4026 29.9267 36.2119 30 35.9772 30H34.3931C34.1584 30 33.9677 29.9267 33.821 29.78C33.6744 29.6333 33.601 29.4426 33.601 29.2079V1.4855C33.601 1.25081 33.6744 1.06012 33.821 0.913445C33.9677 0.766766 34.1584 0.693426 34.3931 0.693426H35.9772ZM41.5207 0.693426C41.7554 0.693426 41.9461 0.766766 42.0927 0.913445C42.2394 1.06012 42.3128 1.25081 42.3128 1.4855V29.2079C42.3128 29.4426 42.2394 29.6333 42.0927 29.78C41.9461 29.9267 41.7554 30 41.5207 30H39.9365C39.7019 30 39.5112 29.9267 39.3645 29.78C39.2178 29.6333 39.1445 29.4426 39.1445 29.2079V1.4855C39.1445 1.25081 39.2178 1.06012 39.3645 0.913445C39.5112 0.766766 39.7019 0.693426 39.9365 0.693426H41.5207ZM51.8166 10.1983C52.4913 10.1983 53.0487 10.4329 53.4887 10.9023C53.9581 11.3424 54.1928 11.8997 54.1928 12.5745V27.6238C54.1928 28.2985 53.9581 28.8706 53.4887 29.3399C53.0487 29.78 52.4913 30 51.8166 30H47.0641C46.3894 30 45.8174 29.78 45.348 29.3399C44.9079 28.8706 44.6879 28.2985 44.6879 27.6238V12.5745C44.6879 11.8997 44.9079 11.3424 45.348 10.9023C45.8174 10.4329 46.3894 10.1983 47.0641 10.1983H51.8166ZM51.0245 14.1586C51.0245 13.9239 50.9511 13.7332 50.8045 13.5866C50.6578 13.4399 50.4671 13.3665 50.2324 13.3665H45.48C46.1547 13.3665 46.7121 13.6012 47.1521 14.0706C47.6215 14.5106 47.8562 15.068 47.8562 15.7427V26.0397C47.8562 26.2743 47.9295 26.465 48.0762 26.6117C48.2229 26.7584 48.4136 26.8317 48.6483 26.8317H50.2324C50.4671 26.8317 50.6578 26.7584 50.8045 26.6117C50.9511 26.465 51.0245 26.2743 51.0245 26.0397V14.1586ZM66.0532 36.3366C66.0532 37.0113 65.8185 37.5687 65.3491 38.0087C64.9091 38.4781 64.3517 38.7128 63.677 38.7128H58.9246C58.2498 38.7128 57.6778 38.4781 57.2084 38.0087C56.7684 37.5687 56.5483 37.0113 56.5483 36.3366V33.1683C56.5483 32.9336 56.6217 32.7429 56.7684 32.5962C56.915 32.4495 57.1057 32.3762 57.3404 32.3762H58.9246C59.1592 32.3762 59.3499 32.4495 59.4966 32.5962C59.6433 32.7429 59.7166 32.9336 59.7166 33.1683V34.7524C59.7166 34.9871 59.79 35.1778 59.9366 35.3245C60.0833 35.4711 60.274 35.5445 60.5087 35.5445H62.0928C62.3275 35.5445 62.5182 35.4711 62.6649 35.3245C62.8116 35.1778 62.8849 34.9871 62.8849 34.7524V30.7921C62.8849 30.5574 62.8116 30.3667 62.6649 30.22C62.5182 30.0733 62.3275 30 62.0928 30H58.9246C58.2498 30 57.6778 29.78 57.2084 29.3399C56.7684 28.8706 56.5483 28.2985 56.5483 27.6238V10.9903C56.5483 10.7556 56.6217 10.565 56.7684 10.4183C56.915 10.2716 57.1057 10.1983 57.3404 10.1983H58.9246C59.1592 10.1983 59.3499 10.2716 59.4966 10.4183C59.6433 10.565 59.7166 10.7556 59.7166 10.9903V24.4555C59.7166 25.1302 59.4819 25.7023 59.0126 26.1717C58.5725 26.6117 58.0151 26.8317 57.3404 26.8317H62.0928C62.3275 26.8317 62.5182 26.7584 62.6649 26.6117C62.8116 26.465 62.8849 26.2743 62.8849 26.0397V10.9903C62.8849 10.7556 62.9582 10.565 63.1049 10.4183C63.2516 10.2716 63.4423 10.1983 63.677 10.1983H65.2611C65.4958 10.1983 65.6865 10.2716 65.8332 10.4183C65.9798 10.565 66.0532 10.7556 66.0532 10.9903V36.3366Z" fill="#101122"/>
</svg>
