<svg width="65" height="65" viewBox="0 0 65 65" fill="none" xmlns="http://www.w3.org/2000/svg">
<path d="M32.5 37.5254C35.3046 37.5254 37.5781 35.2518 37.5781 32.4473C37.5781 29.6427 35.3046 27.3691 32.5 27.3691C29.6954 27.3691 27.4219 29.6427 27.4219 32.4473C27.4219 35.2518 29.6954 37.5254 32.5 37.5254Z" fill="#00D8FF"/>
<path d="M32.5 44.0904C26.3964 44.2375 20.3081 43.4148 14.4625 41.6529C11.7622 40.7969 9.24368 39.4484 7.03422 37.6757C6.19082 37.0704 5.48849 36.2896 4.9755 35.3871C4.46252 34.4845 4.15105 33.4816 4.0625 32.4472C4.0625 29.0896 7.75125 25.799 13.9303 23.6458C19.9325 21.7396 26.2031 20.8149 32.5 20.9077C38.7129 20.8218 44.8996 21.7297 50.8259 23.5971C53.4261 24.4271 55.8591 25.7103 58.0125 27.3874C58.8403 27.9657 59.5312 28.7184 60.0366 29.5927C60.542 30.4669 60.8495 31.4413 60.9375 32.4472C60.9375 35.9369 56.8141 39.4733 50.1719 41.6712C44.4395 43.3761 38.4797 44.192 32.5 44.0904ZM32.5 23.3371C26.4757 23.2584 20.4771 24.1373 14.7286 25.9412C9.04109 27.9257 6.49188 30.6394 6.49188 32.4412C6.49188 34.3262 9.23203 37.2897 15.2486 39.3474C20.8407 41.0253 26.6634 41.8061 32.5 41.661C38.2208 41.7633 43.9236 40.9892 49.4102 39.3657C55.6562 37.2958 58.5 34.3282 58.5 32.4472C58.3972 31.8019 58.1618 31.1848 57.8087 30.6349C57.4556 30.085 56.9925 29.6142 56.4484 29.2521C54.5222 27.7637 52.3487 26.6264 50.0277 25.8924C44.3582 24.1138 38.4413 23.2512 32.5 23.3371Z" fill="#00D8FF"/>
<path d="M20.9625 57.7748C20.0149 57.7964 19.0786 57.5665 18.2488 57.1085C15.34 55.4307 14.3325 50.5923 15.5533 44.1634C16.9008 38.0114 19.2329 32.1173 22.4595 26.7088C25.4883 21.284 29.3647 16.3783 33.9422 12.1773C35.9602 10.3392 38.2872 8.87241 40.8159 7.84461C41.7311 7.41711 42.7288 7.19556 43.7389 7.19556C44.749 7.19556 45.7467 7.41711 46.6619 7.84461C49.6864 9.58742 50.6878 14.9255 49.2761 21.777C47.8887 27.5957 45.6171 33.1671 42.5405 38.2971C39.6186 43.658 35.8641 48.5211 31.4173 52.7048C29.3268 54.6157 26.9005 56.1233 24.2613 57.1512C23.2049 57.5443 22.0895 57.7552 20.9625 57.7748ZM24.5639 27.9154C21.4863 33.0945 19.2512 38.7297 17.942 44.6102C16.8188 50.5313 17.8973 54.0921 19.4655 54.998C21.0905 55.9385 25.0352 55.0468 29.8248 50.8624C34.0704 46.8549 37.654 42.1997 40.4422 37.0702C43.3894 32.1658 45.5684 26.8391 46.9036 21.2752C48.232 14.826 47.0844 10.8773 45.4553 9.93883C44.8447 9.70525 44.1922 9.60072 43.5392 9.63183C42.8861 9.66295 42.2466 9.82903 41.6609 10.1196C39.4098 11.0488 37.3401 12.3677 35.5469 14.0155C31.1738 18.0399 27.471 22.7363 24.5781 27.9276L24.5639 27.9154Z" fill="#00D8FF"/>
<path d="M44.0314 57.8013C41.2791 57.8013 37.7833 56.1356 34.1433 53.0055C29.4862 48.7658 25.5442 43.8018 22.4697 38.3053C19.2829 32.9716 16.9692 27.1628 15.6162 21.0986C15.0309 18.4304 14.9222 15.6797 15.2953 12.9736C15.383 11.9701 15.6892 10.9979 16.1924 10.1252C16.6956 9.25258 17.3836 8.50055 18.2081 7.92189C21.2286 6.17299 26.3534 7.97064 31.5839 12.6141C35.932 16.7216 39.6244 21.4718 42.5323 26.6988C45.7175 31.9078 48.0554 37.5895 49.4589 43.5317C50.0705 46.2977 50.1649 49.153 49.7372 51.9533C49.6358 52.9861 49.3121 53.9847 48.7883 54.8806C48.2644 55.7765 47.5529 56.5483 46.7025 57.1431C45.8859 57.5946 44.9643 57.8217 44.0314 57.8013ZM24.572 37.0825C27.5217 42.3352 31.2872 47.086 35.7277 51.157C40.2959 55.0875 43.9197 55.9325 45.4777 55.0164C47.1027 54.0719 48.3011 50.2166 47.0661 43.9786C45.7134 38.3051 43.4709 32.8815 40.4219 27.9094C37.6468 22.9067 34.1224 18.3582 29.9711 14.4219C25.0473 10.0506 21.0539 9.07361 19.4269 10.0161C18.92 10.4285 18.5041 10.9413 18.2052 11.5223C17.9063 12.1033 17.7309 12.7399 17.6902 13.392C17.3675 15.8054 17.4727 18.2567 18.0009 20.6335C19.3027 26.4326 21.5217 31.9868 24.5741 37.0866L24.572 37.0825Z" fill="#00D8FF"/>
</svg>
