<svg width="16" height="20" viewBox="0 0 16 20" fill="none" xmlns="http://www.w3.org/2000/svg">
<path d="M5.79998 6.34999C6.35998 6.34999 6.80998 5.89999 6.80998 5.33999C6.80998 4.77999 6.35998 4.32999 5.79998 4.32999C5.23998 4.32999 4.78998 4.77999 4.78998 5.33999C4.78998 5.89999 5.23998 6.34999 5.79998 6.34999Z" fill="white"/>
<path fill-rule="evenodd" clip-rule="evenodd" d="M7.83 8.55C7.83 7.47 6.92 6.69 5.8 6.69C4.68 6.69 3.77 7.47 3.77 8.55V9.06C3.77 9.15 3.81 9.24 3.87 9.3C3.93 9.36 4.02 9.4 4.11 9.4H7.49C7.58 9.4 7.67 9.36 7.73 9.3C7.79 9.24 7.83 9.15 7.83 9.06V8.55ZM3.75 11.5C3.75 11.3011 3.82902 11.1103 3.96967 10.9697C4.11032 10.829 4.30109 10.75 4.5 10.75H11.5C11.6989 10.75 11.8897 10.829 12.0303 10.9697C12.171 11.1103 12.25 11.3011 12.25 11.5C12.25 11.6989 12.171 11.8897 12.0303 12.0303C11.8897 12.171 11.6989 12.25 11.5 12.25H4.5C4.30109 12.25 4.11032 12.171 3.96967 12.0303C3.82902 11.8897 3.75 11.6989 3.75 11.5ZM3.75 14.5C3.75 14.3011 3.82902 14.1103 3.96967 13.9697C4.11032 13.829 4.30109 13.75 4.5 13.75H11.5C11.6989 13.75 11.8897 13.829 12.0303 13.9697C12.171 14.1103 12.25 14.3011 12.25 14.5C12.25 14.6989 12.171 14.8897 12.0303 15.0303C11.8897 15.171 11.6989 15.25 11.5 15.25H4.5C4.30109 15.25 4.11032 15.171 3.96967 15.0303C3.82902 14.8897 3.75 14.6989 3.75 14.5Z" fill="white"/>
<path fill-rule="evenodd" clip-rule="evenodd" d="M0.5 2.5C0.5 1.398 1.398 0.5 2.5 0.5H9.19C9.752 0.5 10.282 0.738 10.655 1.131L10.661 1.138L14.973 5.84C15.332 6.223 15.5 6.724 15.5 7.2V17.5C15.5 18.602 14.602 19.5 13.5 19.5H2.5C1.398 19.5 0.5 18.602 0.5 17.5V2.5ZM9.189 2.5H2.5V17.5H13.5V7.192L9.204 2.507L9.201 2.506L9.189 2.5Z" fill="white"/>
<path fill-rule="evenodd" clip-rule="evenodd" d="M9.19 0.5C9.45522 0.5 9.70957 0.605357 9.89711 0.792893C10.0846 0.98043 10.19 1.23478 10.19 1.5V6.2H14.5C14.6313 6.2 14.7614 6.22587 14.8827 6.27612C15.004 6.32638 15.1143 6.40003 15.2071 6.49289C15.3 6.58575 15.3736 6.69599 15.4239 6.81732C15.4741 6.93864 15.5 7.06868 15.5 7.2C15.5 7.33132 15.4741 7.46136 15.4239 7.58268C15.3736 7.70401 15.3 7.81425 15.2071 7.90711C15.1143 7.99997 15.004 8.07362 14.8827 8.12388C14.7614 8.17413 14.6313 8.2 14.5 8.2H9.19C8.92479 8.2 8.67043 8.09464 8.4829 7.90711C8.29536 7.71957 8.19 7.46522 8.19 7.2V1.5C8.19 1.23478 8.29536 0.98043 8.4829 0.792893C8.67043 0.605357 8.92479 0.5 9.19 0.5Z" fill="white"/>
</svg>
