<svg width="40" height="40" viewBox="0 0 40 40" fill="none" xmlns="http://www.w3.org/2000/svg">
<g filter="url(#filter0_d_58_1390)">
<circle cx="20" cy="16" r="16" fill="#989FA2"/>
</g>
<path d="M20 11C18.6739 11 17.4021 11.5268 16.4645 12.4645C15.5268 13.4021 15 14.6739 15 16C15 17.3261 15.5268 18.5979 16.4645 19.5355C17.4021 20.4732 18.6739 21 20 21C21.3261 21 22.5979 20.4732 23.5355 19.5355C24.4732 18.5979 25 17.3261 25 16C25 14.6739 24.4732 13.4021 23.5355 12.4645C22.5979 11.5268 21.3261 11 20 11Z" fill="#EBECED"/>
<path fill-rule="evenodd" clip-rule="evenodd" d="M20 5C20.2652 5 20.5196 5.10536 20.7071 5.29289C20.8946 5.48043 21 5.73478 21 6V7C21 7.26522 20.8946 7.51957 20.7071 7.70711C20.5196 7.89464 20.2652 8 20 8C19.7348 8 19.4804 7.89464 19.2929 7.70711C19.1054 7.51957 19 7.26522 19 7V6C19 5.73478 19.1054 5.48043 19.2929 5.29289C19.4804 5.10536 19.7348 5 20 5ZM11.293 7.293C11.4805 7.10553 11.7348 7.00021 12 7.00021C12.2652 7.00021 12.5195 7.10553 12.707 7.293L14.207 8.793C14.3892 8.9816 14.49 9.2342 14.4877 9.4964C14.4854 9.7586 14.3802 10.0094 14.1948 10.1948C14.0094 10.3802 13.7586 10.4854 13.4964 10.4877C13.2342 10.49 12.9816 10.3892 12.793 10.207L11.293 8.707C11.1055 8.51947 11.0002 8.26516 11.0002 8C11.0002 7.73484 11.1055 7.48053 11.293 7.293ZM28.707 7.293C28.8945 7.48053 28.9998 7.73484 28.9998 8C28.9998 8.26516 28.8945 8.51947 28.707 8.707L27.207 10.207C27.1148 10.3025 27.0044 10.3787 26.8824 10.4311C26.7604 10.4835 26.6292 10.5111 26.4964 10.5123C26.3636 10.5134 26.2319 10.4881 26.109 10.4378C25.9862 10.3875 25.8745 10.3133 25.7806 10.2194C25.6867 10.1255 25.6125 10.0139 25.5622 9.89095C25.5119 9.76806 25.4866 9.63638 25.4877 9.5036C25.4889 9.37082 25.5165 9.2396 25.5689 9.1176C25.6213 8.99559 25.6975 8.88525 25.793 8.793L27.293 7.293C27.4805 7.10553 27.7348 7.00021 28 7.00021C28.2652 7.00021 28.5195 7.10553 28.707 7.293ZM9 16C9 15.7348 9.10536 15.4804 9.29289 15.2929C9.48043 15.1054 9.73478 15 10 15H11C11.2652 15 11.5196 15.1054 11.7071 15.2929C11.8946 15.4804 12 15.7348 12 16C12 16.2652 11.8946 16.5196 11.7071 16.7071C11.5196 16.8946 11.2652 17 11 17H10C9.73478 17 9.48043 16.8946 9.29289 16.7071C9.10536 16.5196 9 16.2652 9 16ZM28 16C28 15.7348 28.1054 15.4804 28.2929 15.2929C28.4804 15.1054 28.7348 15 29 15H30C30.2652 15 30.5196 15.1054 30.7071 15.2929C30.8946 15.4804 31 15.7348 31 16C31 16.2652 30.8946 16.5196 30.7071 16.7071C30.5196 16.8946 30.2652 17 30 17H29C28.7348 17 28.4804 16.8946 28.2929 16.7071C28.1054 16.5196 28 16.2652 28 16ZM14.207 21.793C14.3945 21.9805 14.4998 22.2348 14.4998 22.5C14.4998 22.7652 14.3945 23.0195 14.207 23.207L12.707 24.707C12.5184 24.8892 12.2658 24.99 12.0036 24.9877C11.7414 24.9854 11.4906 24.8802 11.3052 24.6948C11.1198 24.5094 11.0146 24.2586 11.0123 23.9964C11.01 23.7342 11.1108 23.4816 11.293 23.293L12.793 21.793C12.9805 21.6055 13.2348 21.5002 13.5 21.5002C13.7652 21.5002 14.0195 21.6055 14.207 21.793ZM25.793 21.793C25.9805 21.6055 26.2348 21.5002 26.5 21.5002C26.7652 21.5002 27.0195 21.6055 27.207 21.793L28.707 23.293C28.8892 23.4816 28.99 23.7342 28.9877 23.9964C28.9854 24.2586 28.8802 24.5094 28.6948 24.6948C28.5094 24.8802 28.2586 24.9854 27.9964 24.9877C27.7342 24.99 27.4816 24.8892 27.293 24.707L25.793 23.207C25.6055 23.0195 25.5002 22.7652 25.5002 22.5C25.5002 22.2348 25.6055 21.9805 25.793 21.793ZM20 24C20.2652 24 20.5196 24.1054 20.7071 24.2929C20.8946 24.4804 21 24.7348 21 25V26C21 26.2652 20.8946 26.5196 20.7071 26.7071C20.5196 26.8946 20.2652 27 20 27C19.7348 27 19.4804 26.8946 19.2929 26.7071C19.1054 26.5196 19 26.2652 19 26V25C19 24.7348 19.1054 24.4804 19.2929 24.2929C19.4804 24.1054 19.7348 24 20 24Z" fill="#EBECED"/>
<defs>
<filter id="filter0_d_58_1390" x="0" y="0" width="40" height="40" filterUnits="userSpaceOnUse" color-interpolation-filters="sRGB">
<feFlood flood-opacity="0" result="BackgroundImageFix"/>
<feColorMatrix in="SourceAlpha" type="matrix" values="0 0 0 0 0 0 0 0 0 0 0 0 0 0 0 0 0 0 127 0" result="hardAlpha"/>
<feOffset dy="4"/>
<feGaussianBlur stdDeviation="2"/>
<feComposite in2="hardAlpha" operator="out"/>
<feColorMatrix type="matrix" values="0 0 0 0 0 0 0 0 0 0 0 0 0 0 0 0 0 0 0.35 0"/>
<feBlend mode="normal" in2="BackgroundImageFix" result="effect1_dropShadow_58_1390"/>
<feBlend mode="normal" in="SourceGraphic" in2="effect1_dropShadow_58_1390" result="shape"/>
</filter>
</defs>
</svg>
