<svg width="55" height="55" viewBox="0 0 55 55" fill="none" xmlns="http://www.w3.org/2000/svg">
<path d="M49.3075 3.4375H5.6925C4.4471 3.4375 3.4375 4.4471 3.4375 5.6925V49.3075C3.4375 50.5529 4.4471 51.5625 5.6925 51.5625H49.3075C50.5529 51.5625 51.5625 50.5529 51.5625 49.3075V5.6925C51.5625 4.4471 50.5529 3.4375 49.3075 3.4375Z" fill="#3178C6"/>
<path fill-rule="evenodd" clip-rule="evenodd" d="M31.3586 40.8357V46.1088C32.3168 46.5816 33.3378 46.9144 34.3905 47.0971C35.607 47.3213 36.8418 47.4318 38.0789 47.4271C39.2846 47.4324 40.4874 47.3109 41.6677 47.0645C42.7273 46.8507 43.7384 46.4428 44.6497 45.8613C45.496 45.3152 46.1934 44.5675 46.6795 43.6854C47.5501 41.8589 47.665 39.7627 46.9992 37.852C46.7185 37.1373 46.2998 36.4849 45.7669 35.9321C45.1957 35.3435 44.5462 34.8363 43.8367 34.4248C43.0205 33.9465 42.1723 33.525 41.2981 33.1632C40.6106 32.8779 39.9919 32.6006 39.4419 32.3313C38.9534 32.0975 38.4859 31.822 38.0445 31.5081C37.6991 31.2654 37.3989 30.9641 37.1576 30.6178C36.9503 30.3026 36.842 29.9327 36.8466 29.5556C36.8421 29.2083 36.9388 28.8673 37.125 28.5742C37.3273 28.2674 37.5972 28.0111 37.9139 27.8248C38.3006 27.5958 38.7221 27.4315 39.1617 27.3384C39.701 27.2184 40.2524 27.1607 40.8048 27.1665C41.2695 27.1684 41.7334 27.2017 42.1936 27.2662C42.6908 27.3317 43.1825 27.4334 43.6648 27.5704C44.1559 27.7065 44.6362 27.8789 45.1017 28.086C45.5533 28.2878 45.9853 28.5306 46.3925 28.8113V23.8906C45.5454 23.5699 44.6668 23.3395 43.7714 23.2031C42.6902 23.0456 41.5984 22.9714 40.5058 22.9813C39.3115 22.9754 38.1207 23.111 36.9583 23.3853C35.9072 23.6239 34.908 24.0507 34.0089 24.6451C33.1733 25.2022 32.4831 25.9512 31.9962 26.8296C31.4805 27.8053 31.2253 28.8975 31.2555 30.0007C31.2192 31.4593 31.6995 32.8838 32.6116 34.0226C33.7325 35.2843 35.146 36.2516 36.728 36.8396C37.4498 37.1375 38.123 37.4292 38.7475 37.7145C39.3108 37.9655 39.8523 38.2627 40.3666 38.6031C40.7804 38.8738 41.1444 39.214 41.4425 39.6085C41.7038 39.9672 41.8424 40.4006 41.8378 40.8443C41.8402 41.1768 41.7548 41.5041 41.5903 41.7931C41.4058 42.1023 41.1493 42.3623 40.8427 42.551C40.457 42.7855 40.0354 42.955 39.5948 43.0529C39.0206 43.1809 38.4334 43.2415 37.8451 43.2334C36.6908 43.2303 35.5457 43.0268 34.4609 42.6318C33.3284 42.2221 32.2778 41.6139 31.3586 40.8357ZM22.5002 27.7079H29.3752V23.3646H10.2059V27.7079H17.05V47.0507H22.5002V27.7079Z" fill="white"/>
</svg>
