<svg width="38" height="26" viewBox="0 0 38 26" fill="none" xmlns="http://www.w3.org/2000/svg">
<path fill-rule="evenodd" clip-rule="evenodd" d="M21.3586 18.8357V24.1088C22.3168 24.5816 23.3378 24.9144 24.3905 25.0971C25.607 25.3213 26.8418 25.4318 28.0789 25.4271C29.2846 25.4324 30.4874 25.3109 31.6677 25.0645C32.7273 24.8507 33.7384 24.4428 34.6497 23.8613C35.496 23.3152 36.1934 22.5675 36.6795 21.6854C37.5501 19.8589 37.665 17.7627 36.9992 15.852C36.7185 15.1373 36.2998 14.4849 35.7669 13.9321C35.1957 13.3435 34.5462 12.8363 33.8367 12.4248C33.0205 11.9465 32.1723 11.525 31.2981 11.1632C30.6106 10.8779 29.9919 10.6006 29.4419 10.3313C28.9534 10.0975 28.4859 9.82202 28.0445 9.50807C27.6991 9.26544 27.3989 8.9641 27.1576 8.61775C26.9503 8.30265 26.842 7.93273 26.8466 7.55556C26.8421 7.20833 26.9388 6.8673 27.125 6.57416C27.3273 6.26741 27.5972 6.01106 27.9139 5.82478C28.3006 5.59576 28.7221 5.43146 29.1617 5.33838C29.701 5.21839 30.2524 5.16072 30.8048 5.1665C31.2695 5.16841 31.7334 5.20171 32.1936 5.26619C32.6908 5.33169 33.1825 5.43337 33.6648 5.57041C34.1559 5.70655 34.6362 5.87889 35.1017 6.08603C35.5533 6.28778 35.9853 6.53057 36.3925 6.81135V1.89056C35.5454 1.56995 34.6668 1.33951 33.7714 1.20306C32.6902 1.04556 31.5984 0.971431 30.5058 0.981346C29.3115 0.975449 28.1207 1.11103 26.9583 1.38525C25.9072 1.62393 24.908 2.05074 24.0089 2.6451C23.1733 3.20217 22.4831 3.95123 21.9962 4.82963C21.4805 5.80528 21.2253 6.89755 21.2555 8.00072C21.2192 9.4593 21.6995 10.8838 22.6116 12.0226C23.7325 13.2843 25.146 14.2516 26.728 14.8396C27.4498 15.1375 28.123 15.4292 28.7475 15.7145C29.3108 15.9655 29.8523 16.2627 30.3666 16.6031C30.7804 16.8738 31.1444 17.214 31.4425 17.6085C31.7038 17.9672 31.8424 18.4006 31.8378 18.8443C31.8402 19.1768 31.7548 19.5041 31.5903 19.7931C31.4058 20.1023 31.1493 20.3623 30.8427 20.551C30.457 20.7855 30.0354 20.955 29.5948 21.0529C29.0206 21.1809 28.4334 21.2415 27.8451 21.2334C26.6908 21.2303 25.5457 21.0268 24.4609 20.6318C23.3284 20.2221 22.2778 19.6139 21.3586 18.8357ZM12.5002 5.70791H19.3752V1.36463H0.205933V5.70791H7.04999V25.0507H12.5002V5.70791Z" fill="white"/>
</svg>
