<svg width="22" height="24" viewBox="0 0 22 24" fill="none" xmlns="http://www.w3.org/2000/svg">
<path d="M11 0.3125C9.59108 0.3125 8.23982 0.872208 7.24354 1.8685C6.24725 2.86478 5.68754 4.21604 5.68754 5.625C5.68754 7.03396 6.24725 8.38522 7.24354 9.3815C8.23982 10.3778 9.59108 10.9375 11 10.9375C12.409 10.9375 13.7603 10.3778 14.7565 9.3815C15.7528 8.38522 16.3125 7.03396 16.3125 5.625C16.3125 4.21604 15.7528 2.86478 14.7565 1.8685C13.7603 0.872208 12.409 0.3125 11 0.3125ZM5.33337 13.7708C3.92441 13.7708 2.57316 14.3305 1.57687 15.3268C0.580582 16.3231 0.020874 17.6744 0.020874 19.0833V20.7663C0.020874 21.8345 0.794374 22.744 1.84837 22.9154C7.90887 23.9057 14.0912 23.9057 20.1517 22.9154C20.6614 22.8316 21.1249 22.5695 21.4595 22.176C21.7942 21.7824 21.9783 21.2829 21.9792 20.7663V19.0833C21.9792 17.6744 21.4195 16.3231 20.4232 15.3268C19.4269 14.3305 18.0757 13.7708 16.6667 13.7708H16.185C15.9206 13.7718 15.6637 13.8124 15.4144 13.8927L14.1875 14.2936C12.1163 14.9698 9.88375 14.9698 7.81254 14.2936L6.58571 13.8927C6.33704 13.8129 6.0776 13.7718 5.81646 13.7708H5.33337Z" fill="black"/>
</svg>
