<svg width="61" height="61" viewBox="0 0 61 61" fill="none" xmlns="http://www.w3.org/2000/svg">
<path d="M25.9631 22.0235C31.631 21.7185 37.5277 24.9846 39.4848 32.4571C41.6676 32.6355 43.704 33.6266 45.1911 35.2343C46.6782 36.8421 47.5078 38.9494 47.5158 41.1394C47.5238 43.3295 46.7096 45.4428 45.2342 47.0614C43.7589 48.6799 41.7298 49.6859 39.5483 49.8802H15.1102C3.40583 48.2916 1.80458 31.2498 15.1102 28.9623C16.1514 26.9552 17.7024 25.2575 19.6074 24.0395C21.5124 22.8215 23.7044 22.1263 25.9631 22.0235Z" stroke="black" stroke-width="0.5" stroke-linecap="round" stroke-linejoin="round"/>
<path d="M32.4698 23.3452C33.0211 22.2349 33.8258 21.2699 34.8189 20.528C35.812 19.7861 36.9657 19.2882 38.1868 19.0745C39.4078 18.8607 40.662 18.9372 41.8481 19.2976C43.0342 19.6581 44.1188 20.2925 45.0145 21.1495C45.9101 22.0065 46.5917 23.0622 47.004 24.2312C47.4164 25.4003 47.548 26.6499 47.3883 27.8792C47.2286 29.1085 46.782 30.283 46.0845 31.3078C45.3871 32.3326 44.4584 33.1791 43.3735 33.7788M39.561 15.6059V11.1198M31.6183 18.8973L28.4412 15.7202M47.5037 34.7954L50.6808 37.9598M50.7952 26.84H55.2812M47.5037 18.8973L50.6808 15.7202" stroke="black" stroke-width="0.5" stroke-linecap="round" stroke-linejoin="round"/>
</svg>
