<svg width="20" height="20" viewBox="0 0 20 20" fill="none" xmlns="http://www.w3.org/2000/svg">
<path d="M18.0603 4.80007L18.2271 5.05894C20.7472 9.56287 19.3955 15.244 15.0786 18.0561C13.5372 19.0111 11.7473 19.4905 9.95426 19.4905C8.29782 19.4905 6.61689 19.0158 5.0623 18.1782L4.70639 17.9452L4.56881 17.8552L4.40997 17.8977L1.30628 18.7278L2.13566 15.6202L2.17797 15.4616L2.08824 15.3243L1.84795 14.9564C1.84779 14.9561 1.84762 14.9559 1.84746 14.9556C-1.00361 10.5437 0.414319 4.55221 4.82546 1.80294C9.35434 -0.948941 15.2042 0.367701 18.0603 4.80007ZM13.7858 15.9073H13.8128L13.8395 15.9033C14.7666 15.7664 15.4421 15.2568 15.9637 14.5435H15.9937L16.1033 14.3849C16.4437 13.8927 16.4302 13.2653 16.2761 12.8197L16.2485 12.7398L16.1888 12.6799C16.0851 12.5762 15.9491 12.4949 15.8359 12.4328C15.7717 12.3975 15.6907 12.356 15.6148 12.3172C15.5642 12.2913 15.5159 12.2665 15.4764 12.2456L15.4765 12.2455L15.4688 12.2416L13.4821 11.2472L13.4746 11.2435L13.467 11.2401C13.3318 11.1799 13.1482 11.1086 12.9383 11.1443C12.7279 11.18 12.5675 11.3093 12.4329 11.444C12.3035 11.5736 12.083 11.7979 11.8776 12.0217C11.775 12.1335 11.6737 12.2478 11.5885 12.3518C11.5084 12.4495 11.4253 12.5585 11.3746 12.6543L11.3746 12.6542L11.3707 12.6619C11.3691 12.6651 11.3677 12.6678 11.3663 12.6701C11.3603 12.6696 11.3517 12.6685 11.3404 12.6659C11.3163 12.6603 11.2849 12.6489 11.2475 12.6291L11.2339 12.6219L11.2197 12.6158C10.4 12.2661 9.68261 11.7945 8.97064 11.193C8.38804 10.5948 7.79337 9.87825 7.31757 9.17609C7.31895 9.17447 7.32037 9.17279 7.32184 9.17108C7.34695 9.14169 7.37306 9.11254 7.40548 9.07634C7.43079 9.04807 7.45996 9.0155 7.4955 8.97517C7.84166 8.63956 8.02022 8.19625 8.09823 7.83379C8.13819 7.64814 8.15484 7.47009 8.14995 7.32024C8.14753 7.24594 8.13955 7.16955 8.12224 7.0984C8.11427 7.06563 8.10031 7.01605 8.07354 6.96304C8.06654 6.9366 8.05792 6.90836 8.0489 6.88046C8.02894 6.81873 8.00146 6.74177 7.96967 6.65625C7.90575 6.48434 7.8188 6.26297 7.72553 6.0291C7.65419 5.8502 7.57928 5.66431 7.50724 5.48552C7.39268 5.2012 7.28534 4.93483 7.21104 4.74306C7.13216 4.45064 6.99525 4.22756 6.77197 4.10137C6.57552 3.99036 6.36422 3.99117 6.25432 3.99159C6.24796 3.99161 6.24193 3.99164 6.23627 3.99164H5.61187C5.23855 3.99164 4.89506 4.18726 4.61378 4.46884C3.91809 5.16527 3.51285 6.12637 3.51285 7.2148V7.23335L3.51472 7.25181C3.63295 8.42064 4.0321 9.61245 4.82078 10.5473C6.08731 12.4499 7.87742 14.1102 10.0381 15.1332L10.0488 15.1383L10.0598 15.1426C11.3121 15.6398 12.118 15.8358 12.6873 15.903C13.0971 15.9513 13.4145 15.9297 13.6189 15.9158C13.6875 15.9111 13.7434 15.9073 13.7858 15.9073Z" fill="#B6BFBE" stroke="#B6BFBE" stroke-width="0.735489"/>
</svg>
